<svg width="207" height="48" viewBox="0 0 207 48" fill="none" xmlns="http://www.w3.org/2000/svg">
<path d="M66.2 27.4295V23.617H74.74V32.706C74.0487 33.8243 72.9405 34.719 71.4155 35.39C69.9108 36.0407 68.2435 36.366 66.4135 36.366C64.2378 36.366 62.3062 35.8882 60.6185 34.9325C58.9308 33.9565 57.6193 32.5942 56.684 30.8455C55.7487 29.0765 55.281 27.0635 55.281 24.8065C55.281 22.5088 55.7588 20.4958 56.7145 18.7675C57.6905 17.0188 59.0122 15.6667 60.6795 14.711C62.3672 13.7553 64.248 13.2775 66.322 13.2775C67.7047 13.2775 68.9653 13.491 70.104 13.918C71.263 14.3247 72.239 14.9042 73.032 15.6565C73.825 16.4088 74.3943 17.2628 74.74 18.2185L71.08 20.323C70.6327 19.3877 69.9922 18.6557 69.1585 18.127C68.3248 17.578 67.3387 17.3035 66.2 17.3035C65.0003 17.3035 63.9227 17.6085 62.967 18.2185C62.0113 18.8285 61.259 19.7028 60.71 20.8415C60.161 21.9598 59.8865 23.2815 59.8865 24.8065C59.8865 26.3315 60.161 27.6735 60.71 28.8325C61.2793 29.9712 62.0723 30.8455 63.089 31.4555C64.126 32.0655 65.3257 32.3705 66.688 32.3705C67.4607 32.3705 68.1622 32.2688 68.7925 32.0655C69.4228 31.8418 69.9617 31.5063 70.409 31.059V27.4295H66.2ZM82.7822 13.674V32.035H92.9387V36H78.3597V13.674H82.7822ZM118.134 13.674V36H113.925V21.604L108.252 30.0525H105.934L100.231 21.543V36H96.0521V13.674H99.5596L107.185 25.2335L114.779 13.674H118.134ZM122.249 25.02H133.687V28.558H122.249V25.02ZM136.743 24.8065C136.743 22.4682 137.211 20.4247 138.146 18.676C139.082 16.9273 140.363 15.5955 141.989 14.6805C143.616 13.7452 145.416 13.2775 147.388 13.2775C149.381 13.2775 151.18 13.7452 152.786 14.6805C154.413 15.6158 155.694 16.9578 156.629 18.7065C157.585 20.4348 158.063 22.4682 158.063 24.8065C158.063 27.1652 157.585 29.2188 156.629 30.9675C155.694 32.7162 154.413 34.0582 152.786 34.9935C151.18 35.9085 149.381 36.366 147.388 36.366C145.416 36.366 143.616 35.9085 141.989 34.9935C140.363 34.0582 139.082 32.7162 138.146 30.9675C137.211 29.2188 136.743 27.1652 136.743 24.8065ZM141.41 24.8065C141.41 26.2908 141.654 27.6023 142.142 28.741C142.65 29.8797 143.352 30.7642 144.246 31.3945C145.161 32.0045 146.209 32.3095 147.388 32.3095C148.567 32.3095 149.614 32.0045 150.529 31.3945C151.444 30.7642 152.146 29.8797 152.634 28.741C153.122 27.6023 153.366 26.2908 153.366 24.8065C153.366 23.3222 153.122 22.0208 152.634 20.9025C152.146 19.7638 151.444 18.8895 150.529 18.2795C149.614 17.6492 148.567 17.334 147.388 17.334C146.209 17.334 145.161 17.639 144.246 18.249C143.352 18.859 142.65 19.7333 142.142 20.872C141.654 22.0107 141.41 23.3222 141.41 24.8065ZM171.245 32.3095C172.323 32.3095 173.248 32.0248 174.021 31.4555C174.814 30.8862 175.444 30.0932 175.912 29.0765L179.602 31.2115C179.256 32.1875 178.697 33.072 177.925 33.865C177.152 34.6377 176.196 35.2477 175.058 35.695C173.939 36.1423 172.699 36.366 171.337 36.366C169.364 36.366 167.565 35.8882 165.938 34.9325C164.311 33.9565 163.02 32.5942 162.065 30.8455C161.109 29.0968 160.631 27.0838 160.631 24.8065C160.631 22.5292 161.109 20.5162 162.065 18.7675C163.02 17.0188 164.311 15.6667 165.938 14.711C167.565 13.7553 169.364 13.2775 171.337 13.2775C172.699 13.2775 173.939 13.5012 175.058 13.9485C176.196 14.3958 177.152 15.016 177.925 15.809C178.697 16.5817 179.256 17.456 179.602 18.432L175.912 20.567C175.444 19.5503 174.814 18.7573 174.021 18.188C173.248 17.6187 172.323 17.334 171.245 17.334C170.106 17.334 169.08 17.639 168.165 18.249C167.27 18.8387 166.568 19.7028 166.06 20.8415C165.552 21.9802 165.298 23.3018 165.298 24.8065C165.298 26.3112 165.552 27.6328 166.06 28.7715C166.568 29.9102 167.27 30.7845 168.165 31.3945C169.08 32.0045 170.106 32.3095 171.245 32.3095ZM201.003 36L195.726 35.9695L190.297 27.948C190.257 27.948 190.216 27.948 190.175 27.948C190.155 27.948 190.135 27.948 190.114 27.948H186.881V36H182.459V13.674H190.175C191.924 13.674 193.459 13.9688 194.781 14.5585C196.103 15.1482 197.119 15.992 197.831 17.09C198.543 18.1677 198.898 19.408 198.898 20.811C198.898 22.2343 198.532 23.4848 197.8 24.5625C197.068 25.6402 196.042 26.4637 194.72 27.033L201.003 36ZM186.881 17.4255V24.1965H189.657C190.999 24.1965 192.087 23.922 192.92 23.373C193.774 22.824 194.201 21.97 194.201 20.811C194.201 19.6317 193.785 18.7777 192.951 18.249C192.117 17.7 191.019 17.4255 189.657 17.4255H186.881Z" fill="#161616"/>
<g clip-path="url(#clip0_13440_1868)">
<path d="M25.6866 39.9768C25.3924 40.035 25.0963 40.0866 24.7964 40.1315C21.7619 40.5833 19.0723 40.292 16.7886 39.4524L18.0054 42.4563C18.1334 42.7667 18.4238 42.974 18.7609 42.974H26.0228C26.4192 42.974 26.6923 42.5394 26.5663 42.1879L25.6875 39.9768H25.6866Z" fill="url(#paint0_linear_13440_1868)"/>
<path d="M23.5221 34.5325L19.6185 24.71C19.2565 24.9583 18.8592 25.2811 18.5105 25.6498C17.2622 26.9698 16.3663 30.0377 18.3367 32.6481C19.6175 34.3444 21.907 34.6176 23.5221 34.5325Z" fill="url(#paint1_linear_13440_1868)"/>
<path d="M15.3691 14.0163L12.8561 7.69423C12.7291 7.3628 12.4387 7.15649 12.1015 7.15649H4.58178C4.1854 7.15649 3.89313 7.57007 4.03831 7.96358L9.34599 21.0728C10.6134 17.9247 12.8762 15.5722 15.3691 14.0163Z" fill="url(#paint2_linear_13440_1868)"/>
<path d="M37.5653 20.9523C34.9129 22.6133 32.9129 22.3086 30.7734 22.9199C29.2022 23.3688 28.4276 24.1997 27.9194 25.2055C29.7609 25.0632 31.206 25.6449 32.1125 26.5666C33.2223 27.6965 33.7629 29.2868 33.8776 30.8761L38.5405 20.2732C38.2234 20.5139 37.8977 20.7431 37.5663 20.9513L37.5653 20.9523Z" fill="url(#paint3_linear_13440_1868)"/>
<path d="M24.7953 40.1314C23.4772 40.3272 22.2241 40.3836 21.0416 40.3158L20.2316 42.1888C20.0932 42.5403 20.351 42.9748 20.7474 42.9748H28.0093C28.3465 42.9748 28.6445 42.7676 28.7829 42.4572L30.805 37.8601C29.1765 39.0846 27.0628 39.7943 24.7953 40.1314Z" fill="url(#paint4_linear_13440_1868)"/>
<path d="M43.4386 7.15649H35.9188C35.5817 7.15649 35.2837 7.36376 35.1452 7.69423L34.5864 8.98653C36.7097 9.18424 39.7298 10.424 41.4911 13.5645L43.9544 7.96358C44.1129 7.57007 43.835 7.15649 43.4386 7.15649Z" fill="url(#paint5_linear_13440_1868)"/>
<path d="M35.0475 15.3824C36.2443 15.3289 37.1755 14.3107 37.1211 13.1139C37.0676 11.9172 36.0494 10.9859 34.8526 11.0404C33.6549 11.0938 32.7246 12.112 32.7781 13.3088C32.8316 14.5056 33.8497 15.4368 35.0465 15.3833L35.0475 15.3824ZM35.9911 12.5867C36.3092 12.5724 36.5795 12.8198 36.5938 13.1378C36.6082 13.4559 36.3608 13.7262 36.0427 13.7405C35.7247 13.7548 35.4544 13.5075 35.44 13.1894C35.4257 12.8713 35.6731 12.601 35.9911 12.5867Z" fill="url(#paint6_linear_13440_1868)"/>
<path d="M24.1685 7.83954C26.4045 8.65044 27.8172 12.2169 28.5813 14.9152C29.5574 18.3641 31.5336 18.3412 33.5002 18.0404C35.0274 17.8063 38.0266 16.0776 39.5844 15.6774C41.2788 15.2428 41.8223 15.409 40.443 13.3268C38.2711 10.0488 35.5289 9.65811 34.675 9.61895C34.2576 9.59985 33.8488 9.49001 33.4782 9.29707C32.3292 8.6982 30.9777 7.48709 28.0664 6.91306C24.6327 6.23587 22.7836 7.33523 24.1685 7.83763V7.83954ZM34.6979 10.3009C36.3083 10.2293 37.6713 11.4757 37.7438 13.0851C37.8155 14.6955 36.569 16.0585 34.9596 16.131C33.3493 16.2027 31.9863 14.9562 31.9137 13.3468C31.8421 11.7365 33.0885 10.3735 34.6979 10.3009Z" fill="url(#paint7_linear_13440_1868)"/>
<path d="M27.3476 20.1312C27.659 19.5581 27.1833 18.6574 26.3027 18.6965C25.6236 18.7271 24.9426 19.0719 24.2195 19.9239C23.209 21.114 23.0476 22.1933 23.4936 22.9641C23.9167 23.6948 24.8423 23.9746 26.3562 23.6499C27.3906 23.4283 27.6886 22.9431 28.6246 22.4722C28.6714 22.4483 28.6685 22.3795 28.6198 22.3595C28.5186 22.3175 28.3247 22.2888 27.977 22.3939C27.3036 22.5983 25.6398 22.9469 25.7344 22.1131C25.8022 21.519 26.7191 21.2897 27.3476 20.1312Z" fill="url(#paint8_linear_13440_1868)"/>
<path d="M40.4375 16.2028C37.935 16.5448 35.7296 19.3796 32.3045 19.3844C30.613 19.3873 28.2433 18.3118 27.3798 15.7969C26.3426 12.7739 26.2948 12.1368 25.2518 12.0022C24.6864 11.9296 23.0464 11.8904 21.3482 12.2667C18.6843 12.858 16.4283 14.2372 15.5563 14.8943C8.7643 20.0148 7.44049 29.5613 12.6517 35.5452C15.4607 38.7707 19.6796 39.7698 23.0464 39.5778C29.7304 39.1957 32.4583 34.7429 32.6283 31.6483C32.8327 27.9347 29.9682 25.2212 26.8497 26.5183C26.098 26.8306 25.4906 27.4457 25.268 28.4228C25.014 29.5346 25.4142 31.2433 27.5527 31.2911C27.7466 31.2853 27.8307 31.2013 27.8383 31.0771C27.845 30.9663 27.7657 30.8966 27.6263 30.8317C27.5269 30.7849 26.5661 30.2872 26.8679 29.2337C27.1382 28.2929 28.4725 28.0197 29.2242 28.8096C29.9826 29.6053 30.2748 31.0236 29.5117 32.6044C28.7027 34.2797 25.7552 36.359 20.9556 35.4039C19.3023 35.0744 16.3175 33.4793 16.0539 29.8803C15.8648 27.3024 17.1475 25.4934 18.159 24.586C19.4198 23.4533 20.9556 22.65 22.523 22.1734C22.4953 21.2985 22.7723 20.4398 23.5612 19.5105C24.3845 18.541 25.2499 18.0491 26.2069 18.0061C26.907 17.9746 27.5097 18.2478 27.8698 18.84C28.2022 19.3853 28.1315 20.0539 27.8469 20.5783C27.6501 20.9403 27.4324 21.2259 27.2194 21.4589C29.164 21.4771 30.8728 21.8926 32.2787 21.7197C36.2053 21.2364 38.3381 19.4465 39.3295 18.3719C39.6151 18.0625 39.9217 17.774 40.2474 17.5056C40.6333 17.1876 40.9465 16.9039 41.1548 16.69C41.5349 16.2984 41.0927 16.1121 40.4375 16.2019V16.2028ZM13.3585 32.2051C10.027 27.185 10.6918 21.095 14.1742 16.7902C15.6393 15.2038 17.223 14.2219 18.4331 13.6383C15.6174 15.6154 12.4607 19.8696 12.4167 24.6214C12.389 27.6625 12.795 30.1258 13.5619 32.0991C13.7807 32.6617 13.6918 32.7075 13.3585 32.2051ZM26.1678 17.0606C21.4064 16.0643 17.264 18.9546 15.2019 23.5163C15.0691 23.8095 14.945 24.1658 14.8389 24.5669C14.7005 25.0904 14.5304 25.1448 14.5839 24.524C14.858 21.3224 17.1485 18.2468 19.3806 17.1876C22.4552 15.7272 24.6673 16.0281 26.2022 16.7807C26.7227 17.0367 26.6855 17.1685 26.1687 17.0606H26.1678Z" fill="url(#paint9_linear_13440_1868)"/>
</g>
<defs>
<linearGradient id="paint0_linear_13440_1868" x1="21.6922" y1="7.00654" x2="21.6922" y2="42.4658" gradientUnits="userSpaceOnUse">
<stop stop-color="#5693FC"/>
<stop offset="0.34" stop-color="#4D83FF"/>
<stop offset="1" stop-color="#364ECF"/>
</linearGradient>
<linearGradient id="paint1_linear_13440_1868" x1="20.354" y1="6.69998" x2="20.354" y2="42.4659" gradientUnits="userSpaceOnUse">
<stop stop-color="#5693FC"/>
<stop offset="0.34" stop-color="#4D83FF"/>
<stop offset="1" stop-color="#364ECF"/>
</linearGradient>
<linearGradient id="paint2_linear_13440_1868" x1="9.6841" y1="7.00654" x2="9.6841" y2="42.4658" gradientUnits="userSpaceOnUse">
<stop stop-color="#5693FC"/>
<stop offset="0.34" stop-color="#4D83FF"/>
<stop offset="1" stop-color="#364ECF"/>
</linearGradient>
<linearGradient id="paint3_linear_13440_1868" x1="33.229" y1="7.0064" x2="33.229" y2="42.4657" gradientUnits="userSpaceOnUse">
<stop stop-color="#5693FC"/>
<stop offset="0.34" stop-color="#4D83FF"/>
<stop offset="1" stop-color="#364ECF"/>
</linearGradient>
<linearGradient id="paint4_linear_13440_1868" x1="25.5002" y1="7.00645" x2="25.5002" y2="42.4658" gradientUnits="userSpaceOnUse">
<stop stop-color="#5693FC"/>
<stop offset="0.34" stop-color="#4D83FF"/>
<stop offset="1" stop-color="#364ECF"/>
</linearGradient>
<linearGradient id="paint5_linear_13440_1868" x1="39.2933" y1="7.00654" x2="39.2933" y2="42.4658" gradientUnits="userSpaceOnUse">
<stop stop-color="#5693FC"/>
<stop offset="0.34" stop-color="#4D83FF"/>
<stop offset="1" stop-color="#364ECF"/>
</linearGradient>
<linearGradient id="paint6_linear_13440_1868" x1="34.95" y1="7.00683" x2="34.95" y2="42.4661" gradientUnits="userSpaceOnUse">
<stop stop-color="#5693FC"/>
<stop offset="0.34" stop-color="#4D83FF"/>
<stop offset="1" stop-color="#364ECF"/>
</linearGradient>
<linearGradient id="paint7_linear_13440_1868" x1="32.4648" y1="7.00666" x2="32.4648" y2="42.466" gradientUnits="userSpaceOnUse">
<stop stop-color="#5693FC"/>
<stop offset="0.34" stop-color="#4D83FF"/>
<stop offset="1" stop-color="#364ECF"/>
</linearGradient>
<linearGradient id="paint8_linear_13440_1868" x1="25.9588" y1="7.00668" x2="25.9588" y2="42.466" gradientUnits="userSpaceOnUse">
<stop stop-color="#5693FC"/>
<stop offset="0.34" stop-color="#4D83FF"/>
<stop offset="1" stop-color="#364ECF"/>
</linearGradient>
<linearGradient id="paint9_linear_13440_1868" x1="25.3798" y1="7.00683" x2="25.3798" y2="42.4661" gradientUnits="userSpaceOnUse">
<stop stop-color="#5693FC"/>
<stop offset="0.34" stop-color="#4D83FF"/>
<stop offset="1" stop-color="#364ECF"/>
</linearGradient>
<clipPath id="clip0_13440_1868">
<rect width="40" height="36.274" fill="white" transform="translate(4 6.69995)"/>
</clipPath>
</defs>
</svg>
